<?xml version="1.0" standalone="no"?>
<!DOCTYPE svg PUBLIC "-//W3C//DTD SVG 20010904//EN"
 "http://www.w3.org/TR/2001/REC-SVG-20010904/DTD/svg10.dtd">
<svg version="1.0" xmlns="http://www.w3.org/2000/svg"
 width="512.000000pt" height="512.000000pt" viewBox="0 0 512.000000 512.000000"
 preserveAspectRatio="xMidYMid meet">
<metadata>
Created by potrace 1.16, written by Peter Selinger 2001-2019
</metadata>
<g transform="translate(0.000000,512.000000) scale(0.100000,-0.100000)"
fill="#000000" stroke="none">
<path d="M2160 5104 c-544 -69 -1042 -315 -1436 -708 -397 -398 -641 -895
-709 -1446 -29 -238 -17 -575 30 -805 98 -483 327 -908 679 -1261 353 -352
778 -581 1261 -679 298 -61 693 -61 990 0 383 78 752 250 1060 495 103 81 304
282 385 385 245 308 417 677 495 1060 61 297 61 692 0 990 -98 483 -327 908
-679 1261 -402 401 -890 639 -1456 710 -142 17 -476 17 -620 -2z m240 -865 l0
-552 -92 7 c-146 11 -292 35 -433 71 -147 37 -185 50 -185 64 0 5 33 75 74
155 137 270 295 485 505 689 66 64 123 117 126 117 3 0 5 -248 5 -551z m345
379 c190 -195 323 -383 452 -636 40 -79 73 -148 73 -153 0 -34 -383 -117 -617
-135 l-93 -7 0 552 0 553 38 -30 c20 -17 87 -81 147 -144z m-680 100 c-227
-264 -333 -418 -453 -655 -43 -87 -81 -165 -84 -173 -9 -28 -333 146 -486 261
l-53 40 48 44 c202 180 472 344 713 430 65 23 319 93 343 95 5 0 -8 -19 -28
-42z m946 6 c145 -36 258 -78 414 -154 189 -92 306 -171 518 -351 l30 -26 -54
-41 c-92 -69 -229 -151 -358 -215 -97 -48 -126 -58 -129 -47 -3 8 -41 86 -84
173 -120 237 -226 390 -454 655 l-36 43 28 -7 c16 -3 72 -17 125 -30z m-2052
-724 c114 -81 243 -157 382 -225 l116 -57 -38 -121 c-72 -235 -122 -515 -135
-754 l-7 -123 -474 0 -473 0 0 34 c0 65 30 271 56 376 74 310 219 608 419 858
32 39 61 72 64 72 3 0 44 -27 90 -60z m3196 -12 c200 -250 345 -548 419 -858
26 -105 56 -311 56 -376 l0 -34 -473 0 -473 0 -12 164 c-19 259 -66 506 -140
743 l-29 91 116 57 c139 68 268 144 382 225 46 33 87 60 90 60 3 0 32 -33 64
-72z m-2400 -369 c135 -40 336 -76 505 -91 l140 -12 0 -398 0 -398 -475 0
-475 0 0 50 c0 169 53 497 115 716 48 168 52 177 73 169 9 -3 62 -20 117 -36z
m1599 -1 c72 -195 137 -531 152 -785 l7 -113 -476 0 -477 0 0 398 0 398 139
12 c179 15 378 52 517 96 60 18 112 34 116 35 3 0 13 -18 22 -41z m-2074
-1113 c0 -84 28 -333 51 -454 30 -158 84 -356 135 -497 25 -70 43 -128 41
-131 -3 -2 -57 -28 -121 -58 -129 -59 -245 -124 -356 -198 l-74 -50 -54 59
c-252 275 -443 637 -521 990 -22 98 -51 304 -51 360 l0 34 475 0 475 0 0 -55z
m1120 -424 l0 -478 -102 -7 c-160 -11 -310 -35 -471 -75 l-148 -38 -15 28
c-27 53 -112 324 -139 444 -35 155 -63 347 -71 491 l-7 114 477 0 476 0 0
-479z m1110 437 c0 -137 -40 -418 -86 -607 -27 -112 -89 -305 -122 -382 l-20
-46 -149 37 c-161 41 -311 65 -470 76 l-103 7 0 478 0 479 475 0 475 0 0 -42z
m1120 8 c0 -65 -31 -271 -57 -381 -84 -356 -262 -691 -515 -969 l-54 -59 -74
50 c-111 74 -227 139 -356 198 -64 30 -118 56 -121 58 -2 3 16 61 41 129 101
280 164 585 182 891 l7 117 473 0 474 0 0 -34z m-2230 -1567 l0 -471 -37 30
c-61 49 -245 241 -313 327 -34 43 -89 119 -122 168 -57 85 -178 294 -178 308
0 11 242 67 360 84 119 17 163 21 238 23 l52 2 0 -471z m455 445 c116 -17 355
-73 355 -83 0 -14 -121 -223 -178 -308 -33 -49 -88 -125 -122 -168 -68 -86
-252 -278 -312 -327 l-38 -30 0 473 0 472 98 -7 c53 -4 142 -14 197 -22z
m-1215 -246 c107 -198 245 -393 392 -557 37 -41 66 -76 64 -78 -6 -6 -245 57
-331 87 -198 69 -464 216 -620 344 l-56 45 58 39 c115 78 390 220 428 221 6 0
35 -45 65 -101z m1842 61 c107 -48 247 -125 331 -181 l58 -39 -56 -45 c-154
-125 -410 -268 -610 -340 -90 -32 -335 -98 -341 -91 -2 1 29 38 68 82 154 175
281 356 388 553 30 56 58 102 62 102 5 0 50 -19 100 -41z"/>
</g>
</svg>
